<svg width="720" height="581" xmlns="http://www.w3.org/2000/svg" xmlns:xlink="http://www.w3.org/1999/xlink" xml:space="preserve" overflow="hidden"><defs><clipPath id="clip0"><rect x="332" y="84" width="720" height="581"/></clipPath></defs><g clip-path="url(#clip0)" transform="translate(-332 -84)"><path d="M359.895 35.9895C472.46 35.9895 563.832 127.365 563.832 239.927 563.832 303.856 534.37 365.016 497.734 414.897 445.966 485.422 381.2 532.86 381.2 532.86 381.187 532.86 381.187 532.86 381.187 532.873 368.519 542.167 351.271 542.167 338.603 532.873 338.603 532.86 338.603 532.86 338.591 532.86 338.591 532.86 273.822 485.423 222.057 414.897 185.421 365.014 155.959 303.854 155.959 239.927 155.959 127.362 247.334 35.9895 359.896 35.9895ZM359.895 155.958C313.555 155.958 275.918 193.591 275.918 239.931 275.918 286.275 313.555 323.908 359.895 323.908 406.235 323.908 443.872 286.275 443.872 239.931 443.872 193.591 406.235 155.958 359.895 155.958Z" fill="#102D6A" fill-rule="evenodd" fill-opacity="1" transform="matrix(1.00029 0 0 1 332 84)"/><path d="M40.1828-2.39392C38.1142-1.32143 35.9572-0.514136 33.7079 0.0321849 31.4585 0.578505 29.1168 0.851594 26.6867 0.851594 19.4005 0.851594 13.6287-1.18089 9.36652-5.25377 5.11287-9.32264 2.98805-14.8456 2.98805-21.8182 2.98805-28.7992 5.11287-34.3261 9.36652-38.399 13.6282-42.48 19.4002-44.5204 26.6867-44.5204 29.1168-44.5204 31.4585-44.2473 33.7079-43.701 35.9572-43.1548 38.1142-42.3394 40.1828-41.2589L40.1828-32.2133C38.0942-33.6352 36.0295-34.6795 33.9971-35.3463 31.9727-36.0091 29.8358-36.3425 27.5865-36.3425 23.5698-36.3425 20.4046-35.0491 18.091-32.4704 15.7854-29.8998 14.6366-26.349 14.6366-21.8186 14.6366-17.3079 15.7854-13.7611 18.091-11.1821 20.4046-8.61145 23.5697-7.32611 27.5865-7.32611 29.8358-7.32611 31.9727-7.65548 33.9971-8.32225 36.0296-8.985 38.0942-10.0294 40.1828-11.4553Z" fill="#102D6A" fill-rule="nonzero" fill-opacity="1" transform="matrix(1.00029 0 0 1 404 839.779)"/><path d="M16.4842-42.1108 16.4842-32.7921 27.2975-32.7921 27.2975-25.305 16.4842-25.305 16.4842-11.3915C16.4842-9.86914 16.7815-8.84087 17.384-8.30668 17.9945-7.76845 19.1995-7.50335 20.9989-7.50335L26.3813-7.50335 26.3813-0.000154241 17.4-0.000154241C13.2548-0.000154241 10.3186-0.859727 8.59542-2.58687 6.86824-4.32208 6.0087-7.2543 6.0087-11.3914L6.0087-25.3049 0.787039-25.3049 0.787039-32.792 6.0087-32.792 6.0087-42.1107Z" fill="#102D6A" fill-rule="nonzero" fill-opacity="1" transform="matrix(1.00029 0 0 1 558.804 839.779)"/><path d="M27.3458-28.0039 27.3458-45.5648 37.9021-45.5648 37.9021 0 27.3458 0 27.3458-4.73971C25.9079-2.81171 24.3173-1.39783 22.5741-0.498095 20.8388 0.401643 18.8305 0.851511 16.549 0.851511 12.5082 0.851511 9.19048-0.755162 6.58762-3.96851 3.99288-7.18186 2.69952-11.315 2.69952-16.3715 2.69952-21.4245 3.99288-25.5617 6.58762-28.7745 9.19038-31.9879 12.5082-33.5945 16.549-33.5945 18.8064-33.5945 20.8107-33.1367 22.558-32.2289 24.3133-31.3171 25.9079-29.9073 27.3458-28.0033ZM20.4371-6.76397C22.6864-6.76397 24.3976-7.58338 25.5785-9.22215 26.7553-10.861 27.3458-13.2429 27.3458-16.3718 27.3458-19.4968 26.7554-21.8827 25.5785-23.5215 24.3976-25.1604 22.6864-25.9797 20.4371-25.9797 18.2078-25.9797 16.5048-25.1603 15.3278-23.5215 14.147-21.8826 13.5604-19.4967 13.5604-16.3718 13.5604-13.2428 14.1469-10.8609 15.3278-9.22215 16.5047-7.5833 18.2078-6.76397 20.4371-6.76397Z" fill="#102D6A" fill-rule="nonzero" fill-opacity="1" transform="matrix(1.00029 0 0 1 628.18 839.779)"/><path d="M22.4934-6.76407C24.7307-6.76407 26.4378-7.58348 27.6187-9.22226 28.8076-10.8611 29.4022-13.243 29.4022-16.3719 29.4022-19.4969 28.8077-21.8828 27.6187-23.5216 26.4379-25.1605 24.7307-25.9798 22.4934-25.9798 20.2441-25.9798 18.5169-25.1523 17.32-23.5056 16.119-21.8547 15.5205-19.4768 15.5205-16.3719 15.5205-13.2631 16.119-10.8852 17.32-9.2383 18.517-7.58741 20.2442-6.76407 22.4934-6.76407ZM15.5205-28.004C16.9665-29.908 18.5651-31.3179 20.3245-32.2296 22.0798-33.1374 24.1002-33.5953 26.3816-33.5953 30.4305-33.5953 33.7483-31.9886 36.343-28.7752 38.9337-25.5619 40.2311-21.4248 40.2311-16.3722 40.2311-11.3152 38.9337-7.18206 36.343-3.96923 33.7483-0.755882 30.4305 0.850792 26.3816 0.850792 24.1001 0.850792 22.0798 0.392892 20.3245-0.514855 18.5652-1.42262 16.9666-2.83248 15.5205-4.74043L15.5205-0.00071979 5.04449-0.00071979 5.04449-45.5655 15.5205-45.5655Z" fill="#102D6A" fill-rule="nonzero" fill-opacity="1" transform="matrix(1.00029 0 0 1 692.016 839.779)"/><path d="M5.51092-43.718 19.8584-43.718 29.8198-20.3248 39.8294-43.718 54.145-43.718 54.145 0 43.4931 0 43.4931-31.9731 33.4192-8.40303 26.2696-8.40303 16.1957-31.9731 16.1957 0 5.51092 0Z" fill="#102D6A" fill-rule="nonzero" fill-opacity="1" transform="matrix(1.00029 0 0 1 794.965 839.779)"/><path d="M27.3458-28.0039 27.3458-45.5648 37.9021-45.5648 37.9021 0 27.3458 0 27.3458-4.73971C25.9079-2.81171 24.3173-1.39783 22.5741-0.498095 20.8388 0.401643 18.8305 0.851511 16.549 0.851511 12.5082 0.851511 9.19048-0.755162 6.58762-3.96851 3.99288-7.18186 2.69952-11.315 2.69952-16.3715 2.69952-21.4245 3.99288-25.5617 6.58762-28.7745 9.19038-31.9879 12.5082-33.5945 16.549-33.5945 18.8064-33.5945 20.8107-33.1367 22.558-32.2289 24.3133-31.3171 25.9079-29.9073 27.3458-28.0033ZM20.4371-6.76397C22.6864-6.76397 24.3976-7.58338 25.5785-9.22215 26.7553-10.861 27.3458-13.2429 27.3458-16.3718 27.3458-19.4968 26.7554-21.8827 25.5785-23.5215 24.3976-25.1604 22.6864-25.9797 20.4371-25.9797 18.2078-25.9797 16.5048-25.1603 15.3278-23.5215 14.147-21.8826 13.5604-19.4967 13.5604-16.3718 13.5604-13.2428 14.1469-10.8609 15.3278-9.22215 16.5047-7.5833 18.2078-6.76397 20.4371-6.76397Z" fill="#102D6A" fill-rule="nonzero" fill-opacity="1" transform="matrix(1.00029 0 0 1 895.163 839.779)"/><path d="M40.1828-2.39392C38.1142-1.32143 35.9572-0.514136 33.7079 0.0321849 31.4585 0.578505 29.1168 0.851594 26.6867 0.851594 19.4005 0.851594 13.6287-1.18089 9.36652-5.25377 5.11287-9.32264 2.98805-14.8456 2.98805-21.8182 2.98805-28.7992 5.11287-34.3261 9.36652-38.399 13.6282-42.48 19.4002-44.5204 26.6867-44.5204 29.1168-44.5204 31.4585-44.2473 33.7079-43.701 35.9572-43.1548 38.1142-42.3394 40.1828-41.2589L40.1828-32.2133C38.0942-33.6352 36.0295-34.6795 33.9971-35.3463 31.9727-36.0091 29.8358-36.3425 27.5865-36.3425 23.5698-36.3425 20.4046-35.0491 18.091-32.4704 15.7854-29.8998 14.6366-26.349 14.6366-21.8186 14.6366-17.3079 15.7854-13.7611 18.091-11.1821 20.4046-8.61145 23.5697-7.32611 27.5865-7.32611 29.8358-7.32611 31.9727-7.65548 33.9971-8.32225 36.0296-8.985 38.0942-10.0294 40.1828-11.4553Z" fill="#102D6A" fill-rule="nonzero" fill-opacity="1" transform="matrix(1.00029 0 0 1 999.486 839.779)"/></g></svg>