<svg width="721" height="721" xmlns="http://www.w3.org/2000/svg" xmlns:xlink="http://www.w3.org/1999/xlink" xml:space="preserve" overflow="hidden"><defs><clipPath id="clip0"><rect x="473" y="64" width="721" height="721"/></clipPath><clipPath id="clip1"><rect x="474" y="65" width="720" height="720"/></clipPath><clipPath id="clip2"><rect x="474" y="65" width="720" height="720"/></clipPath><clipPath id="clip3"><rect x="474" y="65" width="720" height="720"/></clipPath></defs><g clip-path="url(#clip0)" transform="translate(-473 -64)"><g clip-path="url(#clip1)"><g clip-path="url(#clip2)"><g clip-path="url(#clip3)"><path d="M924 281C973.625 281 1014 240.624 1014 191 1014 141.376 973.625 101 924 101 874.376 101 834 141.376 834 191 834 240.624 874.376 281 924 281ZM924 200C904.156 200 888 183.857 888 164 888 147.273 899.519 133.303 915 129.277L915 128C915 123.026 919.026 119 924 119 928.974 119 933 123.026 933 128L933 129.277C948.481 133.303 960 147.273 960 164 960 168.974 955.974 173 951 173 946.026 173 942 168.974 942 164 942 154.076 933.932 146 924 146 914.068 146 906 154.076 906 164 906 173.924 914.068 182 924 182 943.844 182 960 198.143 960 218 960 234.727 948.481 248.697 933 252.723L933 254C933 258.974 928.974 263 924 263 919.026 263 915 258.974 915 254L915 252.723C899.519 248.697 888 234.727 888 218 888 213.026 892.026 209 897 209 901.974 209 906 213.026 906 218 906 227.924 914.068 236 924 236 933.932 236 942 227.924 942 218 942 208.076 933.932 200 924 200Z" fill="#102D6A" fill-rule="nonzero" fill-opacity="1"/><path d="M866.904 504.91C863.545 499.96 857.976 496.999 851.998 496.999L759.001 496.999C754.248 501.868 750.949 504.962 750.274 505.576 743.629 511.652 734.998 514.999 725.998 514.999 716.998 514.999 708.367 511.652 701.706 505.569 701.035 504.958 697.74 501.864 692.991 496.999L635.998 496.999C628.633 496.999 622.024 501.483 619.28 508.309L583.28 580.309C581.066 585.853 581.749 592.138 585.092 597.087 588.446 602.037 594.019 604.998 599.998 604.998L815.998 604.998C823.363 604.998 829.972 600.514 832.716 593.688L868.716 521.688C870.93 516.14 870.243 509.855 866.904 504.91Z" fill="#102D6A" fill-rule="nonzero" fill-opacity="1"/><path d="M1068 245 1032 245C1022.05 245 1014 253.06 1014 263 1014 270.742 1018.94 277.207 1025.8 279.746L978 327.547 954.724 304.271C947.693 297.24 936.303 297.24 929.271 304.271L875.271 358.271C868.24 365.303 868.24 376.693 875.271 383.724 878.791 387.244 883.395 389 888 389 892.605 389 897.213 387.24 900.729 383.724L942 342.453 965.276 365.729C972.307 372.76 983.697 372.76 990.729 365.729L1051.25 305.203C1053.79 312.058 1060.25 317 1068 317 1077.95 317 1086 308.94 1086 299L1086 263C1086 253.06 1077.95 245 1068 245Z" fill="#102D6A" fill-rule="nonzero" fill-opacity="1"/><path d="M1086 605 1032 605 1032 362C1032 357.03 1036.03 353 1041 353L1077 353C1081.97 353 1086 357.03 1086 362Z" fill="#102D6A" fill-rule="nonzero" fill-opacity="1"/><path d="M1014 605 960 605 960 416C960 411.03 964.03 407 969 407L1005 407C1009.97 407 1014 411.03 1014 416Z" fill="#102D6A" fill-rule="nonzero" fill-opacity="1"/><path d="M942 605 888 605 888 470C888 465.03 892.03 461 897 461L933 461C937.97 461 942 465.03 942 470Z" fill="#102D6A" fill-rule="nonzero" fill-opacity="1"/><path d="M726 191C666.444 191 618 239.448 618 299 618 403.441 709.933 488.699 713.854 492.279 717.297 495.425 721.64 497 726 497 730.36 497 734.703 495.425 738.146 492.279 742.067 488.703 834 403.44 834 299 834 239.448 785.556 191 726 191ZM726 317C706.12 317 690 300.88 690 281 690 261.116 706.12 245 726 245 745.88 245 762 261.116 762 281 762 300.88 745.88 317 726 317Z" fill="#102D6A" fill-rule="nonzero" fill-opacity="1"/></g></g></g></g></svg>