<svg width="721" height="592" xmlns="http://www.w3.org/2000/svg" xmlns:xlink="http://www.w3.org/1999/xlink" xml:space="preserve" overflow="hidden"><defs><clipPath id="clip0"><rect x="16" y="28" width="721" height="592"/></clipPath><clipPath id="clip1"><rect x="17" y="28" width="720" height="591"/></clipPath><clipPath id="clip2"><rect x="17" y="28" width="720" height="591"/></clipPath><clipPath id="clip3"><rect x="17" y="28" width="720" height="721"/></clipPath></defs><g clip-path="url(#clip0)" transform="translate(-16 -28)"><g clip-path="url(#clip1)"><g clip-path="url(#clip2)"><g clip-path="url(#clip3)"><path d="M274.505 346.505C274.505 369.182 283.513 390.927 299.549 406.962 315.584 422.996 337.328 432.005 360.005 432.005 473.415 427.501 473.385 265.49 360.005 261.005 337.328 261.005 315.58 270.013 299.549 286.049 283.513 302.084 274.505 323.828 274.505 346.505Z" fill="#102D6A" fill-rule="nonzero" fill-opacity="1" transform="matrix(1 0 0 1.00013 17 28)"/><path d="M450 450 270 450C262.84 450 255.969 452.845 250.908 457.908 245.846 462.969 243.001 469.84 243.001 477L243.001 540 477 540 477 477C477 469.84 474.156 462.968 469.093 457.908 464.031 452.846 457.16 450 450.001 450Z" fill="#102D6A" fill-rule="nonzero" fill-opacity="1" transform="matrix(1 0 0 1.00013 17 28)"/><path d="M121.495 121.495C121.495 144.172 130.503 165.917 146.539 181.951 162.574 197.986 184.318 206.995 206.995 206.995 320.405 202.491 320.374 40.4794 206.995 35.9949 184.318 35.9949 162.57 45.0029 146.539 61.0385 130.503 77.0739 121.495 98.8179 121.495 121.495Z" fill="#102D6A" fill-rule="nonzero" fill-opacity="1" transform="matrix(1 0 0 1.00013 17 28)"/><path d="M256.505 346.505C256.529 325.419 262.99 304.84 275.019 287.519 287.049 270.202 304.072 256.963 323.824 249.574 323.249 242.864 320.172 236.612 315.206 232.06 310.236 227.512 303.742 224.993 297.005 225.005L117.005 225.005C109.841 224.997 102.967 227.837 97.9047 232.904 92.8381 237.966 89.9975 244.84 90.0056 252.004L90.0056 369.004 258.938 369.004C257.299 361.616 256.488 354.069 256.507 346.504Z" fill="#102D6A" fill-rule="nonzero" fill-opacity="1" transform="matrix(1 0 0 1.00013 17 28)"/><path d="M513 36C490.323 36 468.578 45.008 452.544 61.0437 436.509 77.0793 427.5 98.8231 427.5 121.5 432.004 234.91 594.016 234.879 598.5 121.5 598.5 98.8231 589.492 77.075 573.456 61.0437 557.421 45.0082 535.677 36 513 36Z" fill="#102D6A" fill-rule="nonzero" fill-opacity="1" transform="matrix(1 0 0 1.00013 17 28)"/><path d="M603 225 423 225C416.262 224.988 409.77 227.508 404.799 232.055 399.833 236.607 396.756 242.859 396.181 249.568 419.505 258.412 438.879 275.327 450.788 297.245 462.697 319.159 466.345 344.62 461.07 369L630.002 369 630.002 252C630.01 244.837 627.169 237.962 622.104 232.899 617.041 227.834 610.167 224.993 603.003 225.001ZM513 274.5C505.619 274.395 499.689 268.381 499.689 261 499.689 253.619 505.62 247.605 513 247.5 520.381 247.605 526.311 253.619 526.311 261 526.311 268.381 520.38 274.395 513 274.5Z" fill="#102D6A" fill-rule="nonzero" fill-opacity="1" transform="matrix(1 0 0 1.00013 17 28)"/><path d="M30.1495-1.8C28.5946-0.996429 26.9714-0.389726 25.2798 0.0160457 23.5964 0.433903 21.8446 0.642837 20.0244 0.642837 14.5601 0.642837 10.2249-0.883975 7.02226-3.93749 3.82803-6.99112 2.23303-11.1375 2.23303-16.377 2.23303-21.6166 3.82814-25.7627 7.02226-28.8166 10.2245-31.8702 14.5597-33.3969 20.0244-33.3969 21.8445-33.3969 23.5964-33.192 25.2798-32.7862 26.9713-32.3763 28.5946-31.7657 30.1495-30.9541L30.1495-24.1719C28.5745-25.2407 27.0236-26.0242 25.5049-26.5183 23.9821-27.0206 22.3789-27.2737 20.6995-27.2737 17.6781-27.2737 15.3035-26.3013 13.5798-24.3648 11.8521-22.4362 10.9923-19.7724 10.9923-16.3772 10.9923-12.9901 11.8521-10.3263 13.5798-8.3898 15.3035-6.46123 17.6781-5.49694 20.6995-5.49694 22.3789-5.49694 23.9821-5.74203 25.5049-6.23623 27.0237-6.73846 28.5745-7.52595 30.1495-8.59875Z" fill="#102D6A" fill-rule="nonzero" fill-opacity="1" transform="matrix(1 0 0 1.00013 89 739.09)"/><path d="M22.0659-17.9033C21.3668-18.2247 20.6757-18.4578 19.9928-18.6105 19.3178-18.7712 18.6347-18.8516 17.9517-18.8516 15.9266-18.8516 14.3677-18.2007 13.2748-16.9069 12.19-15.6092 11.6517-13.7489 11.6517-11.3301L11.6517 0.000637714 3.77671 0.000637714 3.77671-24.6049 11.6517-24.6049 11.6517-20.5709C12.6562-22.1781 13.8133-23.3512 15.1231-24.0906 16.4409-24.8298 18.0159-25.1995 19.8481-25.1995 20.1053-25.1995 20.3865-25.1875 20.6999-25.1673 21.0093-25.1432 21.4553-25.095 22.0339-25.0227Z" fill="#102D6A" fill-rule="nonzero" fill-opacity="1" transform="matrix(1 0 0 1.00013 122.026 739.09)"/><path d="M28.3495-12.3747 28.3495-10.1247 9.94731-10.1247C10.1402-8.28051 10.8031-6.89842 11.9402-5.97837 13.0853-5.05426 14.6884-4.59617 16.7456-4.59617 18.3929-4.59617 20.0884-4.83725 21.8241-5.31938 23.5598-5.80956 25.3438-6.55686 27.1759-7.55334L27.1759-1.49443C25.3196-0.787289 23.4634-0.256958 21.5991 0.0966652 19.7348 0.45827 17.8745 0.643094 16.0223 0.643094 11.5625 0.643094 8.09908-0.485969 5.62443-2.748 3.15751-5.01806 1.92795-8.19624 1.92795-12.2784 1.92795-16.2962 3.13735-19.4503 5.56005-21.7444 7.99087-24.0467 11.3297-25.1998 15.5726-25.1998 19.4377-25.1998 22.5355-24.0306 24.8618-21.6963 27.1841-19.37 28.3493-16.2642 28.3493-12.3748ZM20.2655-14.9783C20.2655-16.4769 19.8236-17.6823 18.9477-18.5943 18.0799-19.5144 16.9428-19.9765 15.5406-19.9765 14.0057-19.9765 12.7643-19.5466 11.812-18.6908 10.8678-17.831 10.2772-16.5934 10.0441-14.9783Z" fill="#102D6A" fill-rule="nonzero" fill-opacity="1" transform="matrix(1 0 0 1.00013 144.218 739.09)"/><path d="M14.8022-11.0736C13.1628-11.0736 11.9294-10.7924 11.1057-10.2379 10.278-9.6794 9.86822-8.85981 9.86822-7.77898 9.86822-6.78255 10.1977-5.99904 10.8646-5.43261 11.5276-4.87412 12.4557-4.59689 13.645-4.59689 15.1236-4.59689 16.365-5.12724 17.3735-6.18799 18.39-7.24865 18.9004-8.57458 18.9004-10.1737L18.9004-11.0737ZM26.8241-14.0468 26.8241-0.000617143 18.9009-0.000617143 18.9009-3.64886C17.8403-2.15825 16.6509-1.06941 15.333-0.386331 14.0151 0.296743 12.4121 0.64224 10.5276 0.64224 7.97626 0.64224 5.90307-0.101067 4.30797-1.59171 2.72088-3.07831 1.92939-5.00688 1.92939-7.37743 1.92939-10.2703 2.91779-12.3837 4.90258-13.7257 6.89544-15.0757 10.0133-15.7507 14.2562-15.7507L18.9008-15.7507 18.9008-16.3775C18.9008-17.619 18.4066-18.5312 17.4223-19.1096 16.4459-19.6882 14.9151-19.9774 12.8258-19.9774 11.1423-19.9774 9.5794-19.8047 8.13291-19.4631 6.68654-19.1297 5.33643-18.6274 4.08291-17.9524L4.08291-23.947C5.7744-24.3649 7.46599-24.6743 9.16149-24.8792 10.865-25.0921 12.5606-25.2006 14.2561-25.2006 18.6998-25.2006 21.9061-24.3207 23.8669-22.5649 25.8357-20.8172 26.824-17.9765 26.824-14.0471Z" fill="#102D6A" fill-rule="nonzero" fill-opacity="1" transform="matrix(1 0 0 1.00013 174.737 739.09)"/><path d="M12.3747-31.5967 12.3747-24.6056 20.4747-24.6056 20.4747-18.9805 12.3747-18.9805 12.3747-8.54979C12.3747-7.40067 12.5998-6.62523 13.0498-6.21946 13.4998-5.82169 14.3998-5.62483 15.7498-5.62483L19.7998-5.62483 19.7998 0.000226286 13.0498 0.000226286C9.93996 0.000226286 7.7381-0.646653 6.44436-1.94439 5.14661-3.23813 4.49974-5.43989 4.49974-8.54977L4.49974-18.9805 0.59436-18.9805 0.59436-24.6056 4.49974-24.6056 4.49974-31.5967Z" fill="#102D6A" fill-rule="nonzero" fill-opacity="1" transform="matrix(1 0 0 1.00013 205.104 739.09)"/><path d="M28.3495-12.3747 28.3495-10.1247 9.94731-10.1247C10.1402-8.28051 10.8031-6.89842 11.9402-5.97837 13.0853-5.05426 14.6884-4.59617 16.7456-4.59617 18.3929-4.59617 20.0884-4.83725 21.8241-5.31938 23.5598-5.80956 25.3438-6.55686 27.1759-7.55334L27.1759-1.49443C25.3196-0.787289 23.4634-0.256958 21.5991 0.0966652 19.7348 0.45827 17.8745 0.643094 16.0223 0.643094 11.5625 0.643094 8.09908-0.485969 5.62443-2.748 3.15751-5.01806 1.92795-8.19624 1.92795-12.2784 1.92795-16.2962 3.13735-19.4503 5.56005-21.7444 7.99087-24.0467 11.3297-25.1998 15.5726-25.1998 19.4377-25.1998 22.5355-24.0306 24.8618-21.6963 27.1841-19.37 28.3493-16.2642 28.3493-12.3748ZM20.2655-14.9783C20.2655-16.4769 19.8236-17.6823 18.9477-18.5943 18.0799-19.5144 16.9428-19.9765 15.5406-19.9765 14.0057-19.9765 12.7643-19.5466 11.812-18.6908 10.8678-17.831 10.2772-16.5934 10.0441-14.9783Z" fill="#102D6A" fill-rule="nonzero" fill-opacity="1" transform="matrix(1 0 0 1.00013 226.616 739.09)"/><path d="M20.5231-21.0055 20.5231-34.1835 28.4302-34.1835 28.4302 0 20.5231 0 20.5231-3.55176C19.4383-2.10538 18.245-1.04462 16.9391-0.369566 15.6293 0.305434 14.1186 0.642939 12.407 0.642939 9.37358 0.642939 6.88248-0.562443 4.93385-2.97311 2.99325-5.38387 2.02495-8.48563 2.02495-12.2785 2.02495-16.0713 2.99326-19.1731 4.93385-21.5839 6.88248-23.9946 9.37358-25.1999 12.407-25.1999 14.1106-25.1999 15.6133-24.8544 16.9231-24.1713 18.2409-23.4964 19.4383-22.4396 20.5231-21.0053ZM15.332-5.07909C17.0235-5.07909 18.3092-5.69382 19.1891-6.92733 20.0771-8.15678 20.5231-9.94073 20.5231-12.2791 20.5231-14.6255 20.0771-16.4134 19.1891-17.647 18.3092-18.8764 17.0235-19.4952 15.332-19.4952 13.6606-19.4952 12.3789-18.8764 11.4909-17.647 10.6109-16.4135 10.1731-14.6256 10.1731-12.2791 10.1731-9.94073 10.6111-8.15678 11.4909-6.92733 12.3789-5.69386 13.6606-5.07909 15.332-5.07909Z" fill="#102D6A" fill-rule="nonzero" fill-opacity="1" transform="matrix(1 0 0 1.00013 257.135 739.09)"/><path d="M16.8747-5.07857C18.5542-5.07857 19.8399-5.69331 20.7319-6.92681 21.6199-8.15626 22.0658-9.94022 22.0658-12.2786 22.0658-14.6249 21.6199-16.4129 20.7319-17.6465 19.8399-18.8759 18.5542-19.4947 16.8747-19.4947 15.1913-19.4947 13.9016-18.8719 13.0016-17.6304 12.1016-16.397 11.6516-14.613 11.6516-12.2787 11.6516-9.95236 12.1016-8.1684 13.0016-6.92691 13.9016-5.69345 15.1913-5.07867 16.8747-5.07867ZM11.6516-21.005C12.7324-22.4393 13.9337-23.4961 15.2516-24.171 16.5694-24.8541 18.0841-25.1996 19.7998-25.1996 22.8292-25.1996 25.3203-23.9942 27.273-21.5835 29.2216-19.1728 30.198-16.071 30.198-12.2782 30.198-8.4853 29.2217-5.38354 27.273-2.97278 25.3203-0.562011 22.8292 0.643269 19.7998 0.643269 18.0841 0.643269 16.5695 0.29773 15.2516-0.385303 13.9336-1.06834 12.7324-2.12503 11.6516-3.55135L11.6516 0.000411429 3.77661 0.000411429 3.77661-34.1831 11.6516-34.1831Z" fill="#102D6A" fill-rule="nonzero" fill-opacity="1" transform="matrix(1 0 0 1.00013 305.012 739.09)"/><path d="M0.546429-24.6055 8.42138-24.6055 15.0268-7.90766 20.6518-24.6055 28.5268-24.6055 18.1772 2.33074C17.1367 5.07096 15.9192 6.98338 14.5291 8.06822 13.1468 9.16107 11.3187 9.70755 9.0487 9.70755L4.50046 9.70755 4.50046 4.54865 6.95937 4.54865C8.29733 4.54865 9.26563 4.33168 9.86827 3.90579 10.479 3.48794 10.9532 2.72458 11.2985 1.6236L11.5076 0.9486Z" fill="#102D6A" fill-rule="nonzero" fill-opacity="1" transform="matrix(1 0 0 1.00013 337.223 739.09)"/><path d="M4.13033-32.8022 12.584-32.8022 12.584-6.39669 27.4499-6.39669 27.4499-0.000205714 4.13013-0.000205714Z" fill="#102D6A" fill-rule="nonzero" fill-opacity="1" transform="matrix(1 0 0 1.00013 382.223 739.09)"/><path d="M4.13033-32.8022 12.584-32.8022 12.584-13.1472C12.584-10.4352 13.0259-8.49456 13.9179-7.32939 14.8059-6.16022 16.2523-5.57763 18.2572-5.57763 20.2823-5.57763 21.7327-6.16023 22.6126-7.32939 23.5006-8.49456 23.9466-10.4352 23.9466-13.1472L23.9466-32.8022 32.4163-32.8022 32.4163-13.1472C32.4163-8.49456 31.2471-5.03517 28.9127-2.7648 26.5864-0.490731 23.0347 0.642343 18.2578 0.642343 13.5006 0.642343 9.95287-0.490731 7.61822-2.7648 5.2919-5.03486 4.13074-8.49425 4.13074-13.1472Z" fill="#102D6A" fill-rule="nonzero" fill-opacity="1" transform="matrix(1 0 0 1.00013 410.899 739.09)"/><path d="M0.225-32.8022 30.4558-32.8022 30.4558-26.4057 19.5755-26.4057 19.5755-0.000205714 11.1219-0.000205714 11.1219-26.4057 0.225206-26.4057Z" fill="#102D6A" fill-rule="nonzero" fill-opacity="1" transform="matrix(1 0 0 1.00013 447.441 739.09)"/><path d="M4.13033-32.8022 26.9677-32.8022 26.9677-26.4057 12.5842-26.4057 12.5842-20.2985 26.1006-20.2985 26.1006-13.9021 12.5842-13.9021 12.5842 0.000102857 4.13054 0.000102857Z" fill="#102D6A" fill-rule="nonzero" fill-opacity="1" transform="matrix(1 0 0 1.00013 478.137 739.09)"/><path d="M4.13033-32.8022 12.584-32.8022 12.584 0 4.13033 0Z" fill="#102D6A" fill-rule="nonzero" fill-opacity="1" transform="matrix(1 0 0 1.00013 508.874 739.09)"/><path d="M33.6219-2.44286C31.5085-1.41429 29.3188-0.642857 27.0488-0.128571 24.7747 0.385714 22.4362 0.642857 20.0256 0.642857 14.5613 0.642857 10.2261-0.883954 7.02339-3.93747 3.82917-6.9911 2.23416-11.1375 2.23416-16.377 2.23416-21.6565 3.85735-25.815 7.10383-28.8484 10.3583-31.8779 14.8181-33.3967 20.4753-33.3967 22.661-33.3967 24.7502-33.1918 26.7432-32.7859 28.744-32.3761 30.6365-31.7655 32.4164-30.9538L32.4164-24.1716C30.5843-25.2083 28.7601-25.9878 26.9521-26.5021 25.14-27.0164 23.324-27.2735 21.5038-27.2735 18.1369-27.2735 15.5453-26.3293 13.7253-24.4449 11.9012-22.5566 10.9932-19.8686 10.9932-16.377 10.9932-12.9056 11.8691-10.2216 13.6289-8.32521 15.3847-6.43685 17.8798-5.49663 21.1181-5.49663 21.994-5.49663 22.8096-5.54887 23.561-5.65735 24.3204-5.76181 24.9993-5.93458 25.6021-6.17163L25.6021-12.552 20.4271-12.552 20.4271-18.2091 33.6216-18.2091Z" fill="#102D6A" fill-rule="nonzero" fill-opacity="1" transform="matrix(1 0 0 1.00013 541.286 739.09)"/><path d="M24.0429-5.97857 10.8165-5.97857 8.72722 0 0.225463 0 12.3749-32.8022 22.4518-32.8022 34.6012 0 26.0995 0ZM12.9219-12.0697 21.9059-12.0697 17.4219-25.1202Z" fill="#102D6A" fill-rule="nonzero" fill-opacity="1" transform="matrix(1 0 0 1.00013 578.223 739.09)"/><path d="M4.13033-32.8022 13.5803-32.8022 25.5056-10.3022 25.5056-32.8022 33.5253-32.8022 33.5253 0 24.0753 0 12.15-22.5 12.15 0 4.13033 0Z" fill="#102D6A" fill-rule="nonzero" fill-opacity="1" transform="matrix(1 0 0 1.00013 613.049 739.09)"/><path d="M4.13033-32.8022 12.584-32.8022 12.584 0 4.13033 0Z" fill="#102D6A" fill-rule="nonzero" fill-opacity="1" transform="matrix(1 0 0 1.00013 650.708 739.09)"/><path d="M24.0429-5.97857 10.8165-5.97857 8.72722 0 0.225463 0 12.3749-32.8022 22.4518-32.8022 34.6012 0 26.0995 0ZM12.9219-12.0697 21.9059-12.0697 17.4219-25.1202Z" fill="#102D6A" fill-rule="nonzero" fill-opacity="1" transform="matrix(1 0 0 1.00013 683.12 739.09)"/><path d="M4.13033-32.8022 12.584-32.8022 12.584-6.39669 27.4499-6.39669 27.4499-0.000205714 4.13013-0.000205714Z" fill="#102D6A" fill-rule="nonzero" fill-opacity="1" transform="matrix(1 0 0 1.00013 717.948 739.09)"/></g></g></g></g></svg>